<svg xmlns="http://www.w3.org/2000/svg" viewBox="0 0 792.93 396.88">
    <g id="Layer_2" data-name="Layer 2">
        <g id="Layer_1-2" data-name="Layer 1">
            <path
                d="M67.54,22.28H62.09c-16.83,0-33.65.06-50.48,0C5.2,22.23.19,17.47,0,11.59A11.07,11.07,0,0,1,11.3.14C34.79,0,58.28.07,81.77,0c2.54,0,3.85.56,4.2,3.5.61,5.1,2.3,10.08,2.68,15.18.31,4.13,2.11,4.79,5.66,4.77,22.16-.11,44.32-.33,66.48,0,18.78.3,36.12,5.28,50.41,18.28,10.76,9.79,17,22.12,19.19,36.31,2.5,16.17.7,31.89-7.56,46.36-10,17.42-26,25.84-45.09,28.65-10.15,1.5-20.53,1.68-30.83,1.87-16.15.29-32.31-.07-48.47.19-4,.06-5.45-1.11-6.18-4.94-5.66-30-11.51-60-17.31-90C72.52,47.69,70.06,35.19,67.54,22.28Zm28.3,25.91c5.59,27.9,11.21,56,16.84,84.07,18.49,0,36.71,1.07,54.75-.28,20.31-1.52,35.82-12.12,39.22-34.93,3.55-23.76-13-47.17-36.94-48.55C145.35,47.1,120.84,48.19,95.84,48.19Z" />
            <path
                d="M408.86,258.94v-11.4h26.87a36.77,36.77,0,0,1,.34,3.71c0,30.83-.23,61.66.1,92.48.33,31.22-19.63,50-50.14,52.7-11.25,1-22.26.51-33-3.17-8.93-3.06-16.43-8.32-21.22-16.5-2.77-4.72-4.28-10.18-6.8-16.43,9.55,0,17.48-.05,25.42.07a3.05,3.05,0,0,1,2.24,1.51c4.61,10.33,14,11.76,23.43,11.69a49.4,49.4,0,0,0,17.41-3.38c10.21-4.06,15.64-14.18,15-26.19a22.17,22.17,0,0,0-2.8,2c-17.65,16.92-62.34,15.62-78-13.48-11.41-21.24-9-59.58,11.88-76.47,6.2-5,13.05-8.6,20.92-9.91,17.09-2.85,33.24-1.68,46.31,11.63A13.42,13.42,0,0,0,408.86,258.94Zm-59.35,42.62c.3,21.09,10.81,32,30.46,31.75,17.28-.25,29.28-13.73,29-32.55-.3-18.62-13.37-30.88-32.58-30.56C360,270.48,349.25,283,349.51,301.56Z" />
            <path
                d="M134.41,353.66v-145a11.27,11.27,0,0,1,2.53-.54c20.83,0,41.66-.36,62.47.23,34.64,1,60.26,25.07,64.66,59.6,2.12,16.56.71,32.6-6.33,47.76-9.84,21.21-27.56,32.29-49.86,36.42-8,1.47-16.21,1.7-24.34,1.85-14.32.25-28.65,0-43,0C138.6,353.93,136.65,353.77,134.41,353.66ZM163.94,329c13.83-.32,27.4,1.39,40.83-2.24,7.18-1.94,13.83-4.68,19.2-9.94,12.62-12.38,14.56-27.95,12.36-44.31-2-14.46-8.5-26.46-21.81-33.85-16.07-8.92-33.45-5.82-50.58-6.25Z" />
            <path
                d="M398.72,123.64c-.65.49-.93.67-1.17.89-6.77,6.19-10.06,13.51-8.78,23,.75,5.56.13,11.3.13,17.38H360.18V12.66h28.53v87.47l1,.28,10.16-13.8c6.31-8.58,12.54-17.21,19-25.67,1-1.38,3-2.81,4.65-2.85C433.79,57.84,444.08,58,455,58c-5.78,7.74-11.29,15.12-16.82,22.48-5.3,7-10.48,14.2-16,21.06-2.38,3-.55,4.94.76,7.1q15.32,25.14,30.74,50.22c1.11,1.81,2.15,3.67,3.78,6.48-8.48,0-16.22-.49-23.87.15-6.47.53-10.23-1.62-13.47-7.27C413.47,146.52,406,135.3,398.72,123.64Z" />
            <path
                d="M563.42,165.07h-27.2c-.14-2.8-.26-5.39-.34-6.92-6.53,2.84-13,6.91-20,8.37-13.14,2.76-26.17,1.69-37.72-6.52-18.21-12.94-18-45.57,6.69-57.68,16.76-8.22,33.76-8.93,50.56.3,2.81-11.71-4.45-22.42-16.34-23.28a47.2,47.2,0,0,0-15.75,1.16c-3.21.9-5.64,4.53-8.48,6.86-1.36,1.11-2.83,2.88-4.31,2.94-7.13.31-14.29.14-21.95.14.73-11.62,6.18-20.23,15.42-26.48,17.38-11.76,53.72-10.18,68.75,6.67,6,6.7,10.06,14.17,10.2,23.22.34,23,.42,46,.6,69C563.6,163.44,563.5,164.08,563.42,165.07Zm-50-49.07c-.14.37.13-.38,0,0-1.83.09-3.67.07-5.47.31-10.47,1.39-16.66,9.93-14.1,19.32a13.21,13.21,0,0,0,7.94,9c11.62,5.15,28.68-1.26,33-12.45,2.28-5.84,1.67-8.86-3.88-11.45A47.83,47.83,0,0,0,513.41,116Z" />
            <path
                d="M676.63,353.79H650.72v-9.44c-6.48,6.43-13.18,10.23-21.07,11.3-15.55,2.1-30.32.85-42.06-11.26-12.52-12.92-11.49-35,2.08-46.9,15.67-13.79,41.36-16.5,59.75-6.3,2.87-8.2-2.1-18.76-10.34-22-12.93-5-27.21-.73-32.07,10.08H581.44c1.12-15.83,12.36-29,29.08-32.52,16.18-3.46,32.49-3.53,47.54,5,12,6.77,18.33,17.6,18.67,31.06.6,23,.23,45.95.26,68.93A13,13,0,0,1,676.63,353.79ZM628,303.29c-4.37,1.34-9.1,2-13,4.15-9.73,5.25-9.83,19.73-.56,25.14,9.51,5.56,31.68,2.05,35.8-14.73.88-3.58,0-5.7-2.76-7.59A40.06,40.06,0,0,0,628,303.29Z" />
            <path
                d="M648.59,103c1.61-15.27-5.16-23.45-19.77-23.94-9-.31-17.9.12-22.3,10.23-.27.61-1.65,1-2.51,1.05-7.47.09-14.94,0-22.91,0a32.43,32.43,0,0,1,13-24.1c11.27-8.74,24.41-10.83,38.24-9.68,9.38.78,18.39,3,26.39,8.18,10.14,6.61,16.47,16.23,16.84,28.06.77,23.92.23,47.88.23,72.12H649.22c-.15-2.66-.29-5.21-.49-8.67-11.29,10.68-24.49,12.13-38.47,11.06-16.26-1.24-28.87-11.93-32-27.45-3-15,5-30.51,19.23-37.67C611.49,95.27,632.4,92.82,648.59,103ZM624.7,116.11a44.9,44.9,0,0,0-4.69.27c-6.94,1-12.88,6.35-14,12.51A14.27,14.27,0,0,0,613.3,144c12.47,7.1,32.09-1.66,35.23-15.59.65-2.89-.07-4.68-2.4-6.35C640.08,117.76,633.37,115.84,624.7,116.11Z" />
            <path
                d="M693.29,58.14h28.42V68.79c6.65-6.79,13.72-11,22.08-12,23.33-2.93,46.23,6.39,48.13,34.81,1.12,16.75.74,33.6,1,50.4.1,7.49,0,15,0,22.89H765V159.6q0-26,0-52a51.82,51.82,0,0,0-.28-7.48c-1.95-13.2-9.1-19.45-21.25-18.78-12.63.71-21.12,9.77-21.35,23.63-.29,17.65-.09,35.31-.1,53,0,2.17,0,4.33,0,6.92H693.29Z" />
            <path
                d="M311.93,165v-7.74c-1.6,1.15-2.72,1.94-3.82,2.75-13.63,10-39.18,10.41-52.94.81-8.83-6.17-13.67-15.09-13.92-25.38-.61-25.62-.2-51.27-.2-77.25h28.11c0,1.94,0,3.71,0,5.48,0,18.17,0,36.33.1,54.49a87.13,87.13,0,0,0,.64,11c1,7.12,5.59,12.54,12.6,13.66a42.47,42.47,0,0,0,14.36,0c9.64-1.85,15.07-9.18,15.11-19.48.09-19.5,0-39,0-58.49v-6.4h28.59V165Z" />
            <path
                d="M493.65,270.43V247.36h19.47c1.43-7.33,1.19-7.58-6.63-7.38-1-4.79,5.12-16.75,9.51-20.51,2.5-2.14-3,2.29,0,0,7.12-6,14.44-12.55,25.74-10.06v37.65h28v23.06H542.26c-.14,1.75-.34,3.17-.34,4.6,0,14.32-.06,28.65,0,43,.06,11.77,6.18,17,17.9,15.3,3.12-.44,6.22-1.05,10.11-1.72.45,7.16.89,14.17,1.37,21.73-14.11,4-27.87,6-41.47-.33-10.52-4.9-15.54-13.93-15.82-25.18-.42-17-.17-34-.2-51,0-1.81,0-3.63,0-6.09Z" />
            <path d="M721.54,353.79h-27.3V208.37h27.3Z" />
            <path d="M308.18,247.47V353.53h-28V247.47Z" />
            <path d="M480.61,353.73H453.88V247.51h26.73Z" />
            <path
                d="M200.11,172.19c-.07,11.52-10.56,22-22.06,22-13,0-23.76-10.21-23.64-22.54.06-5.83,2.94-9.88,7.34-10.32,5-.5,8,2.33,9.17,8.72.63,3.56,2.89,5.1,6.24,5.18s5.17-1.72,5.74-5c1.12-6.48,4.39-9.5,9.56-9S200.15,165.39,200.11,172.19Z" />
            <path
                d="M148,171.81c.06,11.65-12.29,23.05-24.3,22.43-12.66-.65-23-12.24-21.75-24.49.48-4.88,3.82-8.23,8.33-8.34,4.74-.12,8,2.67,8.61,7.72.44,3.7,2.18,6,5.93,6.1,3.35.08,5.59-1.44,6.16-5.14,1-6.73,3.81-9.27,9.14-8.76C144.7,161.78,148,166.17,148,171.81Z" />
            <path
                d="M466.61,206.2c9.35.07,16.49,6.93,16.34,15.71-.13,8.35-7.93,15.46-16.91,15.41-9.84,0-16.92-6.68-16.84-15.79C449.27,212.77,456.82,206.12,466.61,206.2Z" />
            <path
                d="M293.1,206.15c9.14,0,15.86,6.3,15.92,14.95.07,9.17-7.09,16.18-16.54,16.2s-16.13-6.64-16.24-15.89C276.13,212.77,283.43,206.17,293.1,206.15Z" />
        </g>
    </g>
</svg>